<?xml version="1.0" standalone="no"?>
<!DOCTYPE svg PUBLIC "-//W3C//DTD SVG 20010904//EN"
 "http://www.w3.org/TR/2001/REC-SVG-20010904/DTD/svg10.dtd">
<svg version="1.0" xmlns="http://www.w3.org/2000/svg"
 width="512.000000pt" height="512.000000pt" viewBox="0 0 512.000000 512.000000"
 preserveAspectRatio="xMidYMid meet">
<metadata>
Created by potrace 1.14, written by Peter Selinger 2001-2017
</metadata>
<g transform="translate(0.000000,512.000000) scale(0.100000,-0.100000)"
fill="#000000" stroke="none">
<path d="M701 5113 c-54 -11 -131 -77 -164 -138 -29 -56 -30 -165 0 -220 67
-127 208 -178 334 -122 61 27 123 92 140 149 26 87 -3 209 -63 265 -59 55
-167 83 -247 66z"/>
<path d="M2850 5105 c-139 -31 -293 -120 -370 -215 -19 -23 -40 -47 -46 -54
-5 -6 -18 -25 -28 -42 -14 -24 -26 -31 -54 -32 -32 -2 -135 -19 -233 -37 -179
-34 -460 -158 -589 -261 -37 -30 -165 -157 -190 -190 -156 -198 -231 -436
-225 -714 1 -80 5 -158 9 -175 53 -254 141 -423 305 -586 140 -138 292 -230
504 -303 106 -36 259 -71 357 -81 90 -10 98 -13 131 -63 81 -120 213 -222 344
-265 97 -32 163 -37 467 -38 332 0 337 0 392 56 40 40 46 83 46 357 l0 256
108 75 c209 145 369 277 556 460 54 53 101 97 102 97 2 0 2 -26 1 -57 -6 -131
34 -248 117 -339 78 -87 191 -135 326 -138 128 -3 188 24 222 100 16 38 19 66
18 214 -2 230 -26 310 -124 411 l-42 44 45 46 c95 95 119 178 121 410 1 156
-1 175 -21 215 -14 30 -35 52 -65 70 -38 23 -55 26 -128 25 -116 -1 -151 -8
-226 -43 -154 -74 -242 -220 -242 -405 0 -46 -2 -83 -5 -83 -2 0 -41 37 -86
81 -196 196 -401 364 -604 497 l-73 47 -1 260 c0 143 -2 271 -5 284 -7 38 -33
75 -72 101 l-35 25 -321 2 c-246 1 -336 -1 -386 -12z"/>
<path d="M1253 4859 c-71 -26 -76 -126 -8 -155 87 -36 158 64 94 132 -24 25
-57 34 -86 23z"/>
<path d="M298 4594 c-52 -28 -51 -115 1 -144 72 -38 154 37 117 108 -24 46
-73 61 -118 36z"/>
<path d="M1053 4498 c-28 -32 -34 -53 -22 -87 35 -100 169 -64 161 44 -2 30
-48 65 -86 65 -21 0 -40 -8 -53 -22z"/>
<path d="M610 4341 c-113 -36 -180 -128 -180 -246 0 -225 268 -336 434 -179
70 66 93 205 48 290 -27 53 -70 96 -119 119 -41 20 -143 29 -183 16z"/>
<path d="M820 3663 c-51 -18 -65 -94 -25 -137 42 -46 112 -31 135 28 15 42 13
55 -19 87 -28 27 -56 34 -91 22z"/>
<path d="M280 2374 c-90 -39 -116 -103 -95 -234 25 -163 62 -298 126 -460 27
-69 50 -129 52 -134 1 -5 -16 -10 -38 -11 -188 -11 -327 -164 -321 -353 6
-168 134 -303 311 -326 27 -4 50 -8 51 -9 1 -1 -7 -20 -17 -42 -83 -169 -175
-515 -172 -646 1 -49 25 -92 70 -126 l36 -28 621 0 c570 0 628 2 701 19 392
90 682 324 853 686 71 150 163 217 308 226 129 8 190 33 246 99 81 95 75 244
-14 335 -53 56 -95 72 -212 81 -168 13 -254 73 -328 228 -148 315 -398 542
-713 649 -162 55 -165 55 -820 59 -532 2 -614 1 -645 -13z"/>
<path d="M3812 1872 c-31 -9 -61 -59 -55 -91 7 -42 41 -71 83 -71 93 0 116
129 29 159 -18 6 -32 11 -33 10 -1 -1 -11 -4 -24 -7z"/>
<path d="M3015 1765 c-54 -53 -20 -137 55 -139 46 -1 76 23 84 68 14 79 -83
128 -139 71z"/>
<path d="M3412 1608 c-49 -16 -127 -91 -147 -140 -70 -175 58 -364 241 -357
211 9 322 252 190 414 -65 79 -186 115 -284 83z"/>
</g>
</svg>
